<?xml version="1.0" encoding="UTF-8" standalone="no"?>
<svg
   xmlns:dc="http://purl.org/dc/elements/1.1/"
   xmlns:cc="http://creativecommons.org/ns#"
   xmlns:rdf="http://www.w3.org/1999/02/22-rdf-syntax-ns#"
   xmlns:svg="http://www.w3.org/2000/svg"
   xmlns="http://www.w3.org/2000/svg"
   xmlns:sodipodi="http://sodipodi.sourceforge.net/DTD/sodipodi-0.dtd"
   xmlns:inkscape="http://www.inkscape.org/namespaces/inkscape"
   viewBox="0 0 12 16"
   version="1.1"
   id="svg3845"
   sodipodi:docname="file-alt.svg"
   width="12"
   height="16"
   inkscape:version="0.92.2 (5c3e80d, 2017-08-06)">
  <metadata
     id="metadata3851">
    <rdf:RDF>
      <cc:Work
         rdf:about="">
        <dc:format>image/svg+xml</dc:format>
        <dc:type
           rdf:resource="http://purl.org/dc/dcmitype/StillImage" />
        <dc:title />
      </cc:Work>
    </rdf:RDF>
  </metadata>
  <defs
     id="defs3849" />
  <sodipodi:namedview
     pagecolor="#ffffff"
     bordercolor="#666666"
     borderopacity="1"
     objecttolerance="10"
     gridtolerance="10"
     guidetolerance="10"
     inkscape:pageopacity="0"
     inkscape:pageshadow="2"
     inkscape:window-width="1920"
     inkscape:window-height="1141"
     id="namedview3847"
     showgrid="false"
     inkscape:zoom="28.578125"
     inkscape:cx="12.885834"
     inkscape:cy="9.8595163"
     inkscape:window-x="-8"
     inkscape:window-y="-8"
     inkscape:window-maximized="1"
     inkscape:current-layer="svg3845" />
  <path
     d="M 6.9166667,4.71875 V 1 H 1.1875 C 0.80651042,1 0.5,1.2925781 0.5,1.65625 v 12.6875 C 0.5,14.707422 0.80651042,15 1.1875,15 h 9.625 C 11.19349,15 11.5,14.707422 11.5,14.34375 V 5.375 H 7.6041667 c -0.378125,0 -0.6875,-0.2953125 -0.6875,-0.65625 z M 8.75,11.171875 C 8.75,11.352344 8.5953125,11.5 8.40625,11.5 H 3.59375 C 3.4046875,11.5 3.25,11.352344 3.25,11.171875 v -0.21875 C 3.25,10.772656 3.4046875,10.625 3.59375,10.625 h 4.8125 c 0.1890625,0 0.34375,0.147656 0.34375,0.328125 z m 0,-1.75 C 8.75,9.602344 8.5953125,9.75 8.40625,9.75 H 3.59375 C 3.4046875,9.75 3.25,9.602344 3.25,9.421875 V 9.203125 C 3.25,9.022656 3.4046875,8.875 3.59375,8.875 h 4.8125 C 8.5953125,8.875 8.75,9.022656 8.75,9.203125 Z m 0,-1.96875 v 0.21875 C 8.75,7.8523437 8.5953125,8 8.40625,8 H 3.59375 C 3.4046875,8 3.25,7.8523437 3.25,7.671875 V 7.453125 C 3.25,7.2726563 3.4046875,7.125 3.59375,7.125 h 4.8125 C 8.5953125,7.125 8.75,7.2726563 8.75,7.453125 Z M 11.5,4.3332031 V 4.5 H 7.8333333 V 1 H 8.0080729 C 8.1914062,1 8.3661458,1.068359 8.4950521,1.1914063 L 11.299479,3.8710937 C 11.428385,3.9941406 11.5,4.1609375 11.5,4.3332031 Z"
     id="path3843"
     inkscape:connector-curvature="0"
     style="stroke-width:0.02798722" />
</svg>
