<?xml version="1.0" encoding="UTF-8" standalone="no"?>
<svg
   xmlns:dc="http://purl.org/dc/elements/1.1/"
   xmlns:cc="http://creativecommons.org/ns#"
   xmlns:rdf="http://www.w3.org/1999/02/22-rdf-syntax-ns#"
   xmlns:svg="http://www.w3.org/2000/svg"
   xmlns="http://www.w3.org/2000/svg"
   xmlns:sodipodi="http://sodipodi.sourceforge.net/DTD/sodipodi-0.dtd"
   xmlns:inkscape="http://www.inkscape.org/namespaces/inkscape"
   viewBox="0 0 18 16"
   version="1.1"
   id="svg12"
   sodipodi:docname="sort-time-down.svg"
   width="18"
   height="16"
   inkscape:version="0.92.2 (5c3e80d, 2017-08-06)">
  <metadata
     id="metadata18">
    <rdf:RDF>
      <cc:Work
         rdf:about="">
        <dc:format>image/svg+xml</dc:format>
        <dc:type
           rdf:resource="http://purl.org/dc/dcmitype/StillImage" />
        <dc:title></dc:title>
      </cc:Work>
    </rdf:RDF>
  </metadata>
  <defs
     id="defs16" />
  <sodipodi:namedview
     pagecolor="#ffffff"
     bordercolor="#666666"
     borderopacity="1"
     objecttolerance="10"
     gridtolerance="10"
     guidetolerance="10"
     inkscape:pageopacity="0"
     inkscape:pageshadow="2"
     inkscape:window-width="1920"
     inkscape:window-height="1141"
     id="namedview14"
     showgrid="false"
     inkscape:zoom="24.159663"
     inkscape:cx="11.194194"
     inkscape:cy="13.042527"
     inkscape:window-x="-8"
     inkscape:window-y="-8"
     inkscape:window-maximized="1"
     inkscape:current-layer="g3818" />
  <g
     id="g3818">
    <path
       id="path3834"
       style="stroke-width:0.02016128"
       d="M 10.968695,3 C 8.2065962,3 5.9686963,5.2378998 5.9686963,7.9999997 5.9686963,10.7621 8.2065962,13 10.968695,13 c 2.7621,0 5,-2.2379 5,-5.0000003 0,-2.7620999 -2.2379,-4.9999997 -5,-4.9999997 z m 0,9.03226 c -2.2278192,0 -4.0322587,-1.80444 -4.0322587,-4.0322603 0,-2.2278199 1.8044395,-4.0322599 4.0322587,-4.0322599 2.22782,0 4.03226,1.80444 4.03226,4.0322599 0,2.2278203 -1.80444,4.0322603 -4.03226,4.0322603 z m 1.24597,-2.10484 -1.7117,-1.2439503 c -0.0625,-0.0464 -0.0988,-0.11895 -0.0988,-0.19557 V 5.1774198 c 0,-0.13307 0.108872,-0.24194 0.24194,-0.24194 h 0.64516 c 0.133072,0 0.24194,0.10887 0.24194,0.24194 v 2.8568499 l 1.34677,0.9798402 c 0.108872,0.0786 0.131043,0.22984 0.0524,0.3387101 L 12.553345,9.875 c -0.0786,0.106842 -0.22984,0.131042 -0.33871,0.0524 z M 7.1394519,12.353553 4.692241,14.853606 c -0.1911646,0.195223 -0.5012508,0.195161 -0.6922945,0 L 1.5528219,12.353553 c -0.308103,-0.314695 -0.08869,-0.853567 0.346168,-0.853567 H 3.3669965 V 1.500002 c 0,-0.27616 0.2191597,-0.50000205 0.4895422,-0.50000205 h 0.9790756 c 0.2703825,0 0.4895422,0.22384205 0.4895422,0.50000205 v 9.999984 h 1.4681352 c 0.4357158,0 0.6536254,0.539497 0.3461602,0.853567 z" />
  </g>
</svg>
