<?xml version="1.0" encoding="UTF-8" standalone="no"?>
<svg
   xmlns:dc="http://purl.org/dc/elements/1.1/"
   xmlns:cc="http://creativecommons.org/ns#"
   xmlns:rdf="http://www.w3.org/1999/02/22-rdf-syntax-ns#"
   xmlns:svg="http://www.w3.org/2000/svg"
   xmlns="http://www.w3.org/2000/svg"
   xmlns:sodipodi="http://sodipodi.sourceforge.net/DTD/sodipodi-0.dtd"
   xmlns:inkscape="http://www.inkscape.org/namespaces/inkscape"
   viewBox="0 0 18 16"
   version="1.1"
   id="svg12"
   sodipodi:docname="sort-calendar-up.svg"
   width="18"
   height="16"
   inkscape:version="0.92.2 (5c3e80d, 2017-08-06)">
  <metadata
     id="metadata18">
    <rdf:RDF>
      <cc:Work
         rdf:about="">
        <dc:format>image/svg+xml</dc:format>
        <dc:type
           rdf:resource="http://purl.org/dc/dcmitype/StillImage" />
        <dc:title />
      </cc:Work>
    </rdf:RDF>
  </metadata>
  <defs
     id="defs16" />
  <sodipodi:namedview
     pagecolor="#ffffff"
     bordercolor="#666666"
     borderopacity="1"
     objecttolerance="10"
     gridtolerance="10"
     guidetolerance="10"
     inkscape:pageopacity="0"
     inkscape:pageshadow="2"
     inkscape:window-width="1920"
     inkscape:window-height="1141"
     id="namedview14"
     showgrid="false"
     inkscape:zoom="24.159663"
     inkscape:cx="11.194194"
     inkscape:cy="9.2782431"
     inkscape:window-x="-8"
     inkscape:window-y="-8"
     inkscape:window-maximized="1"
     inkscape:current-layer="g3818" />
  <g
     id="g3818">
    <path
       id="path10"
       style="stroke-width:0.03092138"
       d="m 1.5527223,3.6464469 2.4472109,-2.500053 c 0.1911646,-0.19522301 0.5012508,-0.19516101 0.6922945,0 l 2.4471246,2.500053 c 0.308103,0.314695 0.08869,0.853567 -0.346168,0.853567 H 5.3251777 V 14.499998 C 5.3251777,14.776158 5.106018,15 4.8356355,15 H 3.8565599 C 3.5861774,15 3.3670177,14.776158 3.3670177,14.499998 V 4.5000139 H 1.8988825 c -0.4357158,0 -0.6536254,-0.539497 -0.3461602,-0.853567 z M 16.589725,6.1249529 H 8.3083644 c -0.128907,0 -0.234382,-0.105592 -0.234382,-0.2343338 v -0.703119 c 0,-0.5176128 0.419925,-0.9375237 0.93751,-0.9375237 h 0.937514 V 3.2343337 C 9.9490064,3.1055919 10.054481,3 10.183387,3 h 0.78126 c 0.128907,0 0.234381,0.1055919 0.234381,0.2343337 V 4.2499764 H 13.69906 V 3.2343337 C 13.69906,3.1055919 13.804534,3 13.933441,3 h 0.781261 c 0.128905,0 0.23438,0.1055919 0.23438,0.2343337 v 1.0156427 h 0.937512 c 0.517587,0 0.93751,0.4199109 0.93751,0.9375237 v 0.703119 c 0,0.128978 -0.105475,0.2343338 -0.234382,0.2343338 z M 8.3083644,6.7499761 h 8.2813606 c 0.128906,0 0.234381,0.105592 0.234381,0.2343343 V 12.062477 C 16.824106,12.580089 16.404183,13 15.886596,13 H 9.0115014 c -0.517584,0 -0.937509,-0.419911 -0.937509,-0.937523 V 6.9843104 c 0,-0.1287423 0.105474,-0.2343343 0.234382,-0.2343343 z m 2.2656536,3.9844289 c 0,-0.128742 -0.105474,-0.234334 -0.234381,-0.234334 H 9.5583764 c -0.128907,0 -0.234382,0.105592 -0.234382,0.234334 v 0.781261 c 0,0.128743 0.105475,0.234334 0.234382,0.234334 h 0.7812606 c 0.128907,0 0.234381,-0.105591 0.234381,-0.234334 z m 0,-2.5000478 c 0,-0.1287416 -0.105474,-0.2343335 -0.234381,-0.2343335 H 9.5583764 c -0.128907,0 -0.234382,0.1055919 -0.234382,0.2343335 v 0.7812619 c 0,0.1287417 0.105475,0.2343337 0.234382,0.2343337 h 0.7812606 c 0.128907,0 0.234381,-0.105592 0.234381,-0.2343337 z m 2.500036,2.5000478 c 0,-0.128742 -0.105474,-0.234334 -0.234381,-0.234334 h -0.781262 c -0.128908,0 -0.234381,0.105592 -0.234381,0.234334 v 0.781261 c 0,0.128743 0.105473,0.234334 0.234381,0.234334 h 0.781262 c 0.128907,0 0.234381,-0.105591 0.234381,-0.234334 z m 0,-2.5000478 c 0,-0.1287416 -0.105474,-0.2343335 -0.234381,-0.2343335 h -0.781262 c -0.128908,0 -0.234381,0.1055919 -0.234381,0.2343335 v 0.7812619 c 0,0.1287417 0.105473,0.2343337 0.234381,0.2343337 h 0.781262 c 0.128907,0 0.234381,-0.105592 0.234381,-0.2343337 z m 2.500033,2.5000478 c 0,-0.128742 -0.105475,-0.234334 -0.234381,-0.234334 h -0.781264 c -0.128908,0 -0.234381,0.105592 -0.234381,0.234334 v 0.781261 c 0,0.128743 0.105473,0.234334 0.234381,0.234334 h 0.781264 c 0.128906,0 0.234381,-0.105591 0.234381,-0.234334 z m 0,-2.5000478 c 0,-0.1287416 -0.105475,-0.2343335 -0.234381,-0.2343335 h -0.781264 c -0.128908,0 -0.234381,0.1055919 -0.234381,0.2343335 v 0.7812619 c 0,0.1287417 0.105473,0.2343337 0.234381,0.2343337 h 0.781264 c 0.128906,0 0.234381,-0.105592 0.234381,-0.2343337 z" />
  </g>
</svg>
