<?xml version="1.0" encoding="UTF-8" standalone="no"?>
<svg
   xmlns:dc="http://purl.org/dc/elements/1.1/"
   xmlns:cc="http://creativecommons.org/ns#"
   xmlns:rdf="http://www.w3.org/1999/02/22-rdf-syntax-ns#"
   xmlns:svg="http://www.w3.org/2000/svg"
   xmlns="http://www.w3.org/2000/svg"
   xmlns:sodipodi="http://sodipodi.sourceforge.net/DTD/sodipodi-0.dtd"
   xmlns:inkscape="http://www.inkscape.org/namespaces/inkscape"
   viewBox="0 0 16 16"
   version="1.1"
   id="svg3855"
   sodipodi:docname="sync-alt.svg"
   width="16"
   height="16"
   inkscape:version="0.92.2 (5c3e80d, 2017-08-06)">
  <metadata
     id="metadata3861">
    <rdf:RDF>
      <cc:Work
         rdf:about="">
        <dc:format>image/svg+xml</dc:format>
        <dc:type
           rdf:resource="http://purl.org/dc/dcmitype/StillImage" />
        <dc:title />
      </cc:Work>
    </rdf:RDF>
  </metadata>
  <defs
     id="defs3859" />
  <sodipodi:namedview
     pagecolor="#ffffff"
     bordercolor="#666666"
     borderopacity="1"
     objecttolerance="10"
     gridtolerance="10"
     guidetolerance="10"
     inkscape:pageopacity="0"
     inkscape:pageshadow="2"
     inkscape:window-width="1920"
     inkscape:window-height="1141"
     id="namedview3857"
     showgrid="false"
     inkscape:zoom="5.2149125"
     inkscape:cx="-18.01217"
     inkscape:cy="-32.335618"
     inkscape:window-x="-8"
     inkscape:window-y="-8"
     inkscape:window-maximized="1"
     inkscape:current-layer="svg3855" />
  <path
     d="M 11.238064,4.536129 C 10.35567,3.7099033 9.2105485,3.256992 7.9957099,3.2580645 5.8093955,3.2599808 3.9219356,4.7590564 3.4008023,6.838508 3.3628623,6.989883 3.2280038,7.0967742 3.0719431,7.0967742 H 1.4545201 C 1.242883,7.0967742 1.0821089,6.9046411 1.121258,6.6966451 1.7319798,3.4535 4.5793992,1 8,1 9.8755485,1 11.578778,1.7377097 12.835504,2.9386896 L 13.843589,1.9306049 C 14.270335,1.5038589 15,1.8061008 15,2.409625 v 3.7839234 c 0,0.374133 -0.303286,0.6774193 -0.67742,0.6774193 h -3.783922 c -0.6035246,0 -0.9057671,-0.7296653 -0.479021,-1.1564394 z M 1.6774193,9.129032 h 3.7839231 c 0.6035242,0 0.9057667,0.729666 0.4790205,1.15644 l -1.1784273,1.178427 c 0.8823947,0.826254 2.0276008,1.279165 3.2424674,1.278065 2.185186,-0.002 4.073408,-1.500033 4.594795,-3.580416 0.03793,-0.151375 0.172798,-0.2582657 0.328859,-0.2582657 h 1.617451 c 0.211637,0 0.372412,0.1921327 0.333263,0.4001287 C 14.26802,12.5465 11.420601,15 8,15 6.1244515,15 4.421222,14.26229 3.1644963,13.061311 l -1.008085,1.008084 C 1.7296653,14.496141 1,14.193899 1,13.590375 V 9.806452 C 1,9.432319 1.3032863,9.129032 1.6774193,9.129032 Z"
     id="path3853"
     inkscape:connector-curvature="0"
     style="stroke-width:0.0282258" />
</svg>
